# AST/ASF file generated using VICON BodyLanguage
# -----------------------------------------------
:version 1.10
:name VICON
:units
  mass 1.0
  length 0.45
  angle deg
:documentation
   .ast/.asf automatically generated from VICON data using
   VICON BodyBuilder and BodyLanguage model FoxedUp or BRILLIANT.MOD
:root
   order TX TY TZ RX RY RZ
   axis XYZ
   position 0 0 0  
   orientation 0 0 0 
:bonedata
  begin
     id 1 
     name lhipjoint
     direction 0.606768 -0.715223 0.346827 
     length 2.41543 
     axis 0 0 0  XYZ
  end
  begin
     id 2 
     name lfemur
     direction 0.34202 -0.939693 0  
     length 7.2778  
     axis 0 0 20  XYZ
    dof rx ry rz
    limits (-160.0 20.0)
           (-70.0 70.0)
           (-60.0 70.0)
  end
  begin
     id 3 
     name ltibia
     direction 0.34202 -0.939693 0   
     length 7.61811   
     axis 0 0 20   XYZ
    dof rx
    limits (-10.0 170.0)
  end
  begin
     id 4 
     name lfoot
     direction 0.0823924 -0.226371 0.97055   
     length 2.33618   
     axis -90 7.62852e-016 20   XYZ
    dof rx rz
    limits (-45.0 90.0)
           (-70.0 20.0)
  end
  begin
     id 5 
     name ltoes
     direction 1.53554e-011 -4.21934e-011 1   
     length 1.17015   
     axis -90 7.62852e-016 20   XYZ
    dof rx
    limits (-90.0 20.0)
  end
  begin
     id 6 
     name rhipjoint
     direction -0.6077 -0.714582 0.346516   
     length 2.4176  
     axis 0 0 0  XYZ 
  end
  begin
     id 7 
     name rfemur
     direction -0.34202 -0.939693 0   
     length 7.28127   
     axis 0 0 -20   XYZ
    dof rx ry rz
    limits (-160.0 20.0)
           (-70.0 70.0)
           (-70.0 60.0)
  end
  begin
     id 8 
     name rtibia
     direction -0.34202 -0.939693 0   
     length 7.77648   
     axis 0 0 -20   XYZ
    dof rx
    limits (-10.0 170.0)
 end
 begin
     id 9 
     name rfoot
     direction -0.0809463 -0.222398 0.97159   
     length 2.37533  
     axis -90 -7.62852e-016 -20   XYZ
    dof rx rz
    limits (-45.0 90.0)
           (-20.0 70.0)
  end
  begin
     id 10 
     name rtoes
     direction -1.53568e-011 -4.21714e-011 1   
     length 1.18972   
     axis -90 -7.62852e-016 -20   XYZ
    dof rx
    limits (-90.0 20.0)
  end
  begin
     id 11 
     name lowerback
     direction 0.010968 0.991932 -0.126297   
     length 2.21698   
     axis 0 0 0   XYZ
    dof rx ry rz
    limits (-20.0 45.0)
           (-30.0 30.0)
           (-30.0 30.0)
  end
  begin
     id 12 
     name upperback
     direction 0.0167007 0.997503 -0.0686276   
     length 2.22371   
     axis 0 0 0   XYZ
    dof rx ry rz
    limits (-20.0 45.0)
           (-30.0 30.0)
           (-30.0 30.0)
  end
  begin
     id 13 
     name thorax
     direction 0.0111721 0.999885 -0.0102878   
     length 2.25242   
     axis 0 0 0   XYZ
    dof rx ry rz
    limits (-20.0 45.0)
           (-30.0 30.0)
           (-30.0 30.0)
  end
  begin
     id 14 
     name lowerneck
     direction -0.0120265 0.990428 0.137508   
     length 1.57674   
     axis 0 0 0   XYZ
    dof rx ry rz
    limits (-20.0 45.0)
           (-30.0 30.0)
           (-30.0 30.0)
  end
  begin
     id 15 
     name upperneck
     direction 0.0175669 0.998907 0.0433089   
     length 1.5618   
     axis 0 0 0   XYZ
    dof rx ry rz
    limits (-20.0 45.0)
           (-30.0 30.0)
           (-30.0 30.0)
  end
  begin
     id 16
     name head
     direction 0.00754609 0.99997 0.00185367  
     length 1.60579  
     axis 0 0 0   XYZ
    dof rx ry rz
    limits (-20.0 45.0)
           (-30.0 30.0)
           (-30.0 30.0)
  end
  begin
     id 17 
     name lclavicle
     direction 0.885866 0.429166 -0.176231  
     length 3.44967  
     axis 0 0 0   XYZ
    dof ry rz
    limits (-20.0 10.0)
           (0.0 20.0)
  end
  begin
     id 18 
     name lhumerus
     direction 1 -4.48973e-011 -1.90255e-027   
     length 5.20607   
     axis 180 -30 -90   XYZ
    dof rx ry rz
    limits (-60.0 90.0)
           (-90.0 90.0)
           (-90.0 90.0)
  end
  begin
     id 19
     name lradius
     direction 1 -4.48956e-011 9.87925e-027   
     length 3.39961   
     axis 180 -30 -90   XYZ
    dof rx
    limits (-10.0 170.0)
  end
  begin
     id 20
     name lwrist
     direction 1 -4.48985e-011 1.73247e-026   
     length 1.6998   
     axis -9.60847e-015 90 90   XYZ
    dof ry
    limits (-180.0 0.0)
 end
  begin
     id 21 
     name lhand
     direction 1 -4.48798e-011 3.46119e-026   
     length 0.519693   
     axis -2.21073e-014 90 90   XYZ
    dof rx rz
    limits (-90.0 90.0)
           (-45.0 45.0)
  end
  begin
     id 22 
     name lfingers
     direction 1 -4.48938e-011 6.92797e-026   
     length 0.41899   
     axis -4.42155e-014 90 90   XYZ
    dof rx
    limits (0.0 90.0)
  end
  begin
     id 23
     name lthumb
     direction 0.707107 -6.34952e-011 0.707107   
     length 0.601588   
     axis -90 45 6.0103e-014   XYZ
    dof rx rz
    limits (-45.0 45.0)
           (-45.0 45.0)
  end
  begin
     id 24 
     name rclavicle
     direction -0.866736 0.456792 -0.200276   
     length 3.45032  
     axis 0 0 0   XYZ 
    dof ry rz
    limits (-10.0 20.0)
           (-20.0 0.0)
  end
  begin
     id 25 
     name rhumerus
     direction -1 -4.4897e-011 8.65094e-028  
     length 5.32214   
     axis 180 30 90   XYZ
    dof rx ry rz
    limits (-90.0 60.0)
           (-90.0 90.0)
           (-90.0 90.0)
  end
  begin
     id 26 
     name rradius
     direction -1 -4.48987e-011 1.08427e-026   
     length 3.51208   
     axis 180 30 90   XYZ
    dof rx
    limits (-10.0 170.0)
  end
  begin
     id 27 
     name rwrist
     direction -1 -4.48961e-011 1.73222e-026   
     length 1.75604   
     axis -9.60847e-015 -90 -90   XYZ
    dof ry
    limits (-180.0 0.0)
  end
  begin
     id 28
     name rhand
     direction -1 -4.48895e-011 3.46314e-026   
     length 0.586681   
     axis -2.21073e-014 -90 -90   XYZ
    dof rx rz
    limits (-90.0 90.0)
           (-45.0 45.0)
  end
  begin
     id 29
     name rfingers
     direction -1 -4.48968e-011 6.92916e-026   
     length 0.472997   
     axis -4.42155e-014 -90 -90   XYZ
    dof rx
    limits (0.0 90.0)
  end
  begin
     id 30
     name rthumb
     direction -0.707107 -6.34848e-011 0.707107   
     length 0.679133   
     axis -90 -45 -6.0103e-014   XYZ
    dof rx rz
    limits (-45.0 45.0)
           (-45.0 45.0)
  end
:hierarchy
  begin
    root lhipjoint rhipjoint lowerback
    lhipjoint lfemur
    lfemur ltibia
    ltibia lfoot
    lfoot ltoes
    rhipjoint rfemur
    rfemur rtibia
    rtibia rfoot
    rfoot rtoes
    lowerback upperback
    upperback thorax
    thorax lowerneck lclavicle rclavicle
    lowerneck upperneck
    upperneck head
    lclavicle lhumerus
    lhumerus lradius
    lradius lwrist
    lwrist lhand lthumb
    lhand lfingers
    rclavicle rhumerus
    rhumerus rradius
    rradius rwrist
    rwrist rhand rthumb
    rhand rfingers
  end

#!OML:ASF H:\Dans Jumps\Project 1\Capture day 1\Session 1\subject.ASF
:FULLY-SPECIFIED
:DEGREES
1
root 0.564946 17.6066 -13.6187 7.24402 -0.507747 -1.23794
lowerback -3.8034 -0.528081 -0.157731
upperback 1.42693 -0.758067 1.7827
thorax 3.62951 -0.402634 1.87374
lowerneck -13.0109 0.48719 -1.4125
upperneck 14.3335 0.939775 0.0229011
head 6.49713 0.377852 0.32626
rclavicle -1.49089e-016 9.54166e-015
rhumerus -28.4074 -20.5745 -77.4101
rradius 22.4575
rwrist 35.0663
rhand -19.3381 -26.8536
rfingers 7.12502
rthumb 6.97882 -56.7186
lclavicle -1.49089e-016 9.54166e-015
lhumerus -23.6133 7.31436 86.1098
lradius 14.1428
lwrist -2.0834
lhand -25.6498 -4.33344
lfingers 7.12502
lthumb 0.884021 25.6445
rfemur -11.1366 -3.61162 20.4044
rtibia 19.3274
rfoot -14.2925 -3.46625
rtoes 14.088
lfemur -9.8291 7.63658 -19.1116
ltibia 16.218
lfoot -12.0816 3.12255
ltoes -0.0747615
2
root 0.564615 17.6065 -13.6127 7.25113 -0.516255 -1.2314
lowerback -3.82165 -0.523403 -0.143581
upperback 1.42127 -0.751962 1.7634
thorax 3.63327 -0.399009 1.84616
lowerneck -12.995 0.474586 -1.42121
upperneck 14.2711 0.920349 0.0431307
head 6.47442 0.37014 0.332087
rclavicle -5.31749e-015 5.96354e-015
rhumerus -28.4367 -20.5933 -77.4194
rradius 22.4823
rwrist 35.0447
rhand -19.3114 -26.8762
rfingers 7.12502
rthumb 7.00452 -56.7403
lclavicle -5.31749e-015 5.96354e-015
lhumerus -23.6468 7.34279 86.0834
lradius 14.1424
lwrist -2.08791
lhand -25.6867 -4.4307
lfingers 7.12502
lthumb 0.848334 25.5474
rfemur -11.1121 -3.63306 20.3961
rtibia 19.3037
rfoot -14.3002 -3.44045
rtoes 14.0429
lfemur -9.81522 7.65065 -19.1182
ltibia 16.2329
lfoot -12.1206 3.12084
ltoes -0.0193727
3
root 0.562821 17.6067 -13.6071 7.26435 -0.506112 -1.257
lowerback -3.84728 -0.532982 -0.131293
upperback 1.41656 -0.765976 1.77562
thorax 3.64338 -0.405869 1.85072
lowerneck -12.9684 0.491252 -1.39743
upperneck 14.2013 0.942389 0.0126924
head 6.44766 0.380005 0.320167
rclavicle -1.01877e-014 1.51076e-014
rhumerus -28.4406 -20.5953 -77.4163
rradius 22.4735
rwrist 35.0384
rhand -19.3578 -26.9051
rfingers 7.12502
rthumb 6.95976 -56.7707
lclavicle -1.01877e-014 1.51076e-014
lhumerus -23.6811 7.4173 86.0656
lradius 14.1528
lwrist -2.07981
lhand -25.7232 -4.58338
lfingers 7.12502
lthumb 0.81307 25.3948
rfemur -11.1035 -3.62079 20.4341
rtibia 19.3001
rfoot -14.315 -3.46091
rtoes 14.0694
lfemur -9.80824 7.65275 -19.0816
ltibia 16.2232
lfoot -12.1129 3.11388
ltoes -0.0248861
4
root 0.561738 17.6065 -13.6014 7.27049 -0.51345 -1.22785
lowerback -3.86264 -0.531534 -0.161193
upperback 1.41222 -0.762065 1.76246
thorax 3.64764 -0.404448 1.85411
lowerneck -12.9742 0.479947 -1.42205
upperneck 14.1747 0.928465 0.0332502
head 6.44005 0.373845 0.329417
rclavicle 1.07344e-014 -5.1684e-015
rhumerus -28.4509 -20.6372 -77.3981
rradius 22.4664
rwrist 35.0521
rhand -19.3407 -26.8949
rfingers 7.12502
rthumb 6.97626 -56.7599
lclavicle 1.07344e-014 -5.1684e-015
lhumerus -23.7097 7.54928 86.022
lradius 14.1488
lwrist -2.21286
lhand -25.7054 -4.55243
lfingers 7.12502
lthumb 0.830239 25.4257
rfemur -11.0859 -3.62977 20.4039
rtibia 19.296
rfoot -14.3385 -3.44966
rtoes 14.1058
lfemur -9.78971 7.67061 -19.1116
ltibia 16.2167
lfoot -12.1296 3.10008
ltoes -0.0244127
5
root 0.560513 17.6065 -13.5959 7.27931 -0.51505 -1.21899
lowerback -3.88142 -0.533021 -0.170975
upperback 1.40705 -0.763346 1.75497
thorax 3.65296 -0.405214 1.85165
lowerneck -12.968 0.478803 -1.422
upperneck 14.1331 0.926328 0.0344771
head 6.42569 0.373202 0.329441
rclavicle -9.44227e-016 -1.98785e-015
rhumerus -28.4629 -20.6714 -77.3863
rradius 22.4599
rwrist 35.0646
rhand -19.3378 -26.9016
rfingers 7.12502
rthumb 6.97903 -56.7666
lclavicle -9.44227e-016 -1.98785e-015
lhumerus -23.7362 7.62301 85.9936
lradius 14.1389
lwrist -2.27341
lhand -25.719 -4.61068
lfingers 7.12502
lthumb 0.817143 25.3675
rfemur -11.0739 -3.63321 20.3988
rtibia 19.2946
rfoot -14.3576 -3.44943
rtoes 14.1021
lfemur -9.77431 7.6867 -19.1179
ltibia 16.2065
lfoot -12.1343 3.08943
ltoes -0.0211889
6
root 0.55926 17.6065 -13.5905 7.28625 -0.517361 -1.20851
lowerback -3.89855 -0.534434 -0.182669
upperback 1.403 -0.764399 1.74677
thorax 3.65852 -0.405909 1.84956
lowerneck -12.9651 0.478188 -1.42108
upperneck 14.0966 0.924935 0.035042
head 6.41355 0.372872 0.329209
rclavicle -3.97569e-016 7.95139e-015
rhumerus -28.4737 -20.7132 -77.371
rradius 22.4494
rwrist 35.0887
rhand -19.3324 -26.907
rfingers 7.12502
rthumb 6.98431 -56.7718
lclavicle -3.97569e-016 7.95139e-015
lhumerus -23.7569 7.68161 85.9689
lradius 14.1228
lwrist -2.33095
lhand -25.7282 -4.669
lfingers 7.12502
lthumb 0.808297 25.3092
rfemur -11.0654 -3.63452 20.3919
rtibia 19.3031
rfoot -14.3802 -3.4517
rtoes 14.0929
lfemur -9.75441 7.70408 -19.1262
ltibia 16.1888
lfoot -12.1312 3.07938
ltoes -0.0209138
7
root 0.558028 17.6066 -13.5853 7.29277 -0.521083 -1.19582
lowerback -3.91466 -0.535466 -0.196031
upperback 1.40029 -0.76482 1.73741
thorax 3.66487 -0.406325 1.84727
lowerneck -12.972 0.476674 -1.42313
upperneck 14.0674 0.922571 0.0390084
head 6.40541 0.372137 0.330523
rclavicle -5.86415e-015 1.78906e-014
rhumerus -28.481 -20.7585 -77.3542
rradius 22.4361
rwrist 35.1197
rhand -19.3273 -26.9069
rfingers 7.12502
rthumb 6.98916 -56.7715
lclavicle -5.86415e-015 1.78906e-014
lhumerus -23.7708 7.71764 85.9511
lradius 14.1045
lwrist -2.37469
lhand -25.7352 -4.71979
lfingers 7.12502
lthumb 0.801522 25.2584
rfemur -11.0546 -3.63478 20.3824
rtibia 19.306
rfoot -14.3977 -3.45448
rtoes 14.0737
lfemur -9.73824 7.7234 -19.1375
ltibia 16.178
lfoot -12.1292 3.07124
ltoes -0.0215429
